<mxfile host="app.diagrams.net" modified="2021-07-25T10:29:52.493Z" agent="5.0 (Windows NT 10.0; Win64; x64) AppleWebKit/537.36 (KHTML, like Gecko) Chrome/92.0.4515.107 Safari/537.36 Edg/92.0.902.55" etag="W_g5zMhtAAUTpUxuI3gQ" version="14.9.2" type="github">
  <diagram id="6eVxhd2TRdLCq7R75qMY" name="Page-1">
    <mxGraphModel dx="1234" dy="738" grid="1" gridSize="10" guides="1" tooltips="1" connect="1" arrows="1" fold="1" page="1" pageScale="1" pageWidth="850" pageHeight="1100" math="0" shadow="0">
      <root>
        <mxCell id="0" />
        <mxCell id="1" parent="0" />
        <mxCell id="m3BJ8GWjitMkYbj-D_fS-1" value="" style="outlineConnect=0;dashed=0;verticalLabelPosition=bottom;verticalAlign=top;align=center;html=1;shape=mxgraph.aws3.oracle_db_instance_2;fillColor=#2E73B8;gradientColor=none;" vertex="1" parent="1">
          <mxGeometry x="129.5" y="443.5" width="60" height="63" as="geometry" />
        </mxCell>
        <mxCell id="m3BJ8GWjitMkYbj-D_fS-4" value="Oracle 11g" style="text;html=1;strokeColor=none;fillColor=none;align=center;verticalAlign=middle;whiteSpace=wrap;rounded=0;" vertex="1" parent="1">
          <mxGeometry x="109.5" y="520" width="100" height="20" as="geometry" />
        </mxCell>
        <mxCell id="m3BJ8GWjitMkYbj-D_fS-5" value="" style="rounded=1;arcSize=10;dashed=1;fillColor=none;gradientColor=none;dashPattern=8 3 1 3;strokeWidth=2;" vertex="1" parent="1">
          <mxGeometry x="70" y="230" width="189" height="340" as="geometry" />
        </mxCell>
        <mxCell id="m3BJ8GWjitMkYbj-D_fS-6" value="" style="outlineConnect=0;dashed=0;verticalLabelPosition=bottom;verticalAlign=top;align=center;html=1;shape=mxgraph.aws3.corporate_data_center;fillColor=#7D7C7C;gradientColor=none;" vertex="1" parent="1">
          <mxGeometry x="79.5" y="240" width="30" height="50" as="geometry" />
        </mxCell>
      </root>
    </mxGraphModel>
  </diagram>
</mxfile>
